<?xml version="1.0" encoding="utf-8"?>
<!-- Generator: Adobe Illustrator 19.1.0, SVG Export Plug-In . SVG Version: 6.00 Build 0)  -->
<svg version="1.1" id="Layer_1" xmlns="http://www.w3.org/2000/svg" xmlns:xlink="http://www.w3.org/1999/xlink" x="0px" y="0px"
	 viewBox="0 0 137.5 172.3" style="enable-background:new 0 0 137.5 172.3;" xml:space="preserve">
<path d="M13.6,82.5c-0.3-3.6-0.7-6.4-0.8-9.3c-0.1-3.9,0.4-4.4,4.2-4.5c10.2-0.1,20.5-0.2,30.7-0.1c8.6,0.1,17.3,0.6,25.9,0.8
	c1.5,0,3.1,0,4.6,0c0.1-0.4,0.1-0.7,0.2-1.1c-2.5-0.9-5-2.1-7.6-2.7c-2.7-0.6-3.7-2-3.4-4.7c0.3-2.6,0.7-5.2,1-7.6
	c2.9-1.4,5.3-0.4,7.5,0.7c5.7,2.6,11.3,5.5,17.1,8c5.5,2.4,11.1,4.7,16.8,6.3c4.1,1.1,8.5,0.8,13.5,1.2c0.4,3.6,0.9,7.9,1.4,11.7
	c-8.1,2-15.6,3.2-22.7,5.6c-11.8,4-22,10.4-27.3,22.5c-1.4,3.3-1.9,6.9-3.1,10.4c-2.2-6.1-2.6-12.4-0.8-18.8
	c1.9-6.4,5.8-11.7,11-17.5C58.6,80.5,36.5,81.4,13.6,82.5z"/>
</svg>
