<?xml version="1.0" encoding="utf-8"?>
<!-- Generator: Adobe Illustrator 19.1.0, SVG Export Plug-In . SVG Version: 6.00 Build 0)  -->
<svg version="1.1" id="Layer_1" xmlns="http://www.w3.org/2000/svg" xmlns:xlink="http://www.w3.org/1999/xlink" x="0px" y="0px"
	 viewBox="0 0 137.5 172.3" style="enable-background:new 0 0 137.5 172.3;" xml:space="preserve">
<path d="M109.7,24.5c8.4,5.4,11.1,10.5,7.4,21.2c-4.9,14.2-11.2,27.9-17.5,41.5c-6.5,13.9-13.9,27.3-20.7,41
	c-1.9,3.9-3.5,8.1-4.4,12.3c-1,4.7-4,6.4-8,7.5c-3.6,0.9-6.1-0.4-5.3-4.1c0.8-3.9-1-5.4-3.7-7.3C37.3,122,24.4,102.4,19.6,78
	c-1.4-7.1-1.2-15,0.5-22c3.4-13.8,17.2-17.2,27.1-7c3.6,3.7,6,8.6,8.9,12.9c1.4,2.1,2.9,4.1,4.8,6.9c8.7-18.2,15.2-37,35.6-44.3
	C100.9,24.5,105.3,24.5,109.7,24.5z M65.8,129.1c0.8-1.3,1.5-2.1,2-3.1c7.2-13.3,14.7-26.3,21.3-39.9c5.7-11.5,10.7-23.5,15.1-35.5
	c1.7-4.7,2-10.3,1.3-15.4c-0.6-5.2-5-6.9-9.3-3.8c-4.2,3-8.2,6.7-11.2,10.8C72.5,59.5,68.2,78.9,70.9,99.9c0.2,1.5,0.6,3,0.6,4.5
	c0.1,4.2-4.6,8.7-9.7,8.9c-5.6,0.3-3.7-4.3-4-7c-2.3-18.1-8.3-34.8-19-49.7c-1.7-2.4-4.5-4.1-7-6.3C20.1,71.3,41.2,112.6,65.8,129.1
	z"/>
</svg>
