<?xml version="1.0" encoding="utf-8"?>
<!-- Generator: Adobe Illustrator 19.1.0, SVG Export Plug-In . SVG Version: 6.00 Build 0)  -->
<svg version="1.1" id="Layer_1" xmlns="http://www.w3.org/2000/svg" xmlns:xlink="http://www.w3.org/1999/xlink" x="0px" y="0px"
	 viewBox="0 0 137.5 172.3" style="enable-background:new 0 0 137.5 172.3;" xml:space="preserve">
<g>
	<path d="M16.9,74.9c1.9-5.4,3.4-11,5.8-16.3C26.1,51,31.6,44.7,38,39.3c6.6-5.6,14.2-9,23.2-8.4c7.2,0.5,13.7,2.7,19,7.9
		c2,1.9,4.8,3.2,7.3,4.5c14.5,7.5,26,18.1,32.7,33.3c6.8,15.4,5,29-6.8,41.6c-2.3,2.4-4.5,4.8-7.1,7.5c0.6,0.6,1.3,1.4,2.2,2.4
		c-1.7,1.8-3.7,1.6-5.5,1.6c-2.5-0.1-4.5,0.6-6.6,1.9c-15.5,9.4-32.2,11.7-49.8,8.7c-1.1-0.2-2.1-0.8-3.1-1
		c-4.8-1.2-9.2-3.6-14.4-3.1c-2,0.2-4.1-1.1-6.5-1.8c1-1.9,1.6-3.2,2.5-4.9c-1.7-2.2-3.6-4.5-5.2-7c-1.1-1.7-1.8-3.7-2.7-5.5
		c-4.1-7.7-4.1-15.9-3-24.2c0.8-5.5,1.9-10.9,2.8-16.3l0,0C16.9,76,16.9,75.4,16.9,74.9L16.9,74.9z M98.6,121.6
		c5.2-3.1,8.8-7.5,11.9-12.3c4.1-6.4,5.8-13.4,4.8-20.9c-0.9-7.2-3.5-14-7.7-19.8c-5.3-7.2-11.5-13.7-19.1-18.7
		c-1.3-0.9-2.5-1.3-4.2-1c-3.8,0.7-4.4,0.3-6.2-3.1c-0.9-1.6-1.8-3-4.3-3c-0.2,3.4-0.4,6.7-0.7,9.9c-0.9,9.3-2,18.6-2.9,27.9
		c-0.3,3.1-0.7,6.4,1.8,9c-0.4,5.5,3.8,8.5,6.6,12.3c0.8,1.1,1.7,2.1,2.7,3.1C86.7,110.9,91.1,117.7,98.6,121.6z M31,123.3
		c1.3-1.4,2.3-2.3,3-3.4c1.9-2.7,3.7-5.5,5.6-8.2c4.9-7.2,9.7-14.4,14.8-21.4c1.3-1.9,2-3.8,2.2-6c0.7-7.3,1.5-14.5,2.3-21.8
		c0.6-6.2,1.2-12.3,1.7-18.5c0.1-1-0.2-2.1-0.4-3.3c-1.1-0.1-1.9-0.4-2.7-0.2c-2.9,0.8-5.8,1.8-8.6,2.8c-0.8,0.3-1.4,0.8-2,1.4
		c-4.4,3.9-7.8,8.6-10.6,13.7c-4.4,7.9-7.5,16.2-9.5,25c-2.1,9.2-3.2,18.5-1.3,27.8C26.3,115.3,27.7,119.3,31,123.3z M68.5,136.1
		c8.5-1.2,15.4-4.2,21.5-8.6c-7.3-7.5-14.3-14.7-21.5-22.2C68.5,115.7,68.5,125.6,68.5,136.1z M54.7,113.1c-0.3-0.1-0.5-0.2-0.8-0.3
		c-5.4,5.8-10.7,11.7-16.2,17.7c5.1,4.3,10.4,6.5,17,6.5C54.7,128.6,54.7,120.9,54.7,113.1z"/>
</g>
</svg>
